<?xml version="1.0" encoding="utf-8"?>
<!-- Generator: Adobe Illustrator 27.0.0, SVG Export Plug-In . SVG Version: 6.00 Build 0)  -->
<svg version="1.1" id="Capa_1" xmlns="http://www.w3.org/2000/svg" xmlns:xlink="http://www.w3.org/1999/xlink" x="0px" y="0px"
	 viewBox="0 0 469.3 469.4" style="enable-background:new 0 0 469.3 469.4;" xml:space="preserve">
<style type="text/css">
	.st0{fill:#1A3A5C;}
	.st1{display:none;fill:#FFFFFF;}
	.st2{fill:#E94C53;}
</style>
<g id="Capa_9">
	<path class="st0" d="M412.3,184.5c0.4,22-4,43-11.4,63.6c-6,16.6-14.6,31.6-25,45.7c-11.2,15.3-22.5,30.5-33.6,45.8
		c-22.9,31.4-45.7,62.8-68.5,94.3c-4.6,6.4-8.8,13.1-13.6,19.4c-13.8,18.1-38.4,18.1-51.7-0.4c-25.4-35.2-50.6-70.7-75.7-106.1
		c-13.9-19.6-27.7-39.3-41.6-58.9c-24.6-34.8-35.1-73.7-32.2-116c2.7-38.6,17.3-72.5,41.9-102.4C131.1,32.8,170.2,12.1,216.8,7
		c58.4-6.4,108.7,12.6,148.6,55.7c25.1,27.1,40.7,59.6,45.6,96.6c0.6,4.2,1,8.5,1.2,12.8C412.4,176.3,412.3,180.4,412.3,184.5
		 M235.3,267.9c43.9,0.1,80.3-39.6,79.8-80.7c-0.6-45-35.1-80.3-79.6-80.3c-44.3,0-78.8,35.3-79.5,79.9
		C155.3,228.2,191.9,267.8,235.3,267.9"/>
	<path class="st0" d="M132.3,106.9h211v166.4h-211L132.3,106.9z"/>
	<path class="st1" d="M145.2,188.1V86.3c0-10,3.5-14,13.4-15.5c21-3.1,42.2-4.6,63.4-4.2c21,0.5,41.7,3.1,61.1,11.7
		c32,14.3,51.6,39,58.8,73c6.5,30.9,4.2,61.2-8.8,90.2c-13.3,29.6-36.1,48.6-66.9,58.3c-24.1,7.7-48.9,9.1-73.9,8
		c-11.4-0.5-22.9-1.4-34.3-2.2c-8.2-0.6-12.8-5.6-12.9-14C145.2,257.3,145.2,222.7,145.2,188.1 M198.3,260.4
		c12.8,0.4,25.2,0.7,37.4-1.7c24.6-4.9,42.5-18.2,50.5-42.6c6-18.5,6.7-37.5,2.2-56.5c-4.9-20.7-17.9-34.4-38.2-41.1
		c-10.4-3.4-21.1-4.6-32-4.6c-6.6,0-13.3,0.5-20,0.7C198.3,163.4,198.3,211.7,198.3,260.4"/>
</g>
<g id="Capa_7">
	<g>
		<rect x="139" y="86.1" class="st2" width="197.7" height="10.4"/>
		<rect x="139" y="221.4" class="st2" width="197.7" height="62.4"/>
		<rect x="139" y="127.8" class="st2" width="197.7" height="36.4"/>
		<rect x="139" y="101.7" class="st2" width="197.7" height="20.8"/>
		<rect x="139" y="169.4" class="st2" width="197.7" height="46.8"/>
	</g>
</g>
</svg>
